<svg width="124" height="37" viewBox="0 0 124 37" fill="none" xmlns="http://www.w3.org/2000/svg">
<path d="M34.72 9.4C34.72 11.6667 33.92 13.6267 32.32 15.28C30.72 16.9067 28.3867 18.08 25.32 18.8C26.9733 19.2533 28.2267 20 29.08 21.04C29.9333 22.0533 30.36 23.2267 30.36 24.56C30.36 26.6667 29.6933 28.4933 28.36 30.04C27.0533 31.5867 25.1333 32.7867 22.6 33.64C20.0667 34.4667 17.0133 34.88 13.44 34.88C12.1067 34.88 11.04 34.84 10.24 34.76C10.2133 35.5067 9.89333 36.0667 9.28 36.44C8.66667 36.8133 7.88 37 6.92 37C5.96 37 5.29333 36.7867 4.92 36.36C4.57333 35.9333 4.42667 35.3067 4.48 34.48C4.72 30.7467 5.18667 26.84 5.88 22.76C6.57333 18.6533 7.45333 14.6933 8.52 10.88C8.70667 10.2133 9.08 9.74667 9.64 9.48C10.2 9.21333 10.9333 9.08 11.84 9.08C13.4667 9.08 14.28 9.53333 14.28 10.44C14.28 10.8133 14.2 11.24 14.04 11.72C13.3467 13.8 12.6533 16.6267 11.96 20.2C11.2667 23.7467 10.7733 27.1333 10.48 30.36C11.76 30.4667 12.8 30.52 13.6 30.52C17.3333 30.52 20.0667 29.9867 21.8 28.92C23.56 27.8267 24.44 26.44 24.44 24.76C24.44 23.5867 23.9333 22.6 22.92 21.8C21.9333 21 20.2667 20.56 17.92 20.48C17.3867 20.4533 17.0133 20.32 16.8 20.08C16.5867 19.84 16.48 19.4533 16.48 18.92C16.48 18.1467 16.64 17.52 16.96 17.04C17.28 16.56 17.8667 16.3067 18.72 16.28C20.6133 16.2267 22.32 15.9467 23.84 15.44C25.3867 14.9333 26.6 14.2267 27.48 13.32C28.36 12.3867 28.8 11.3067 28.8 10.08C28.8 8.53333 28.04 7.32 26.52 6.44C25 5.53333 22.6667 5.08 19.52 5.08C16.6667 5.08 13.9067 5.45333 11.24 6.2C8.57333 6.92 6.30667 7.84 4.44 8.96C3.58667 9.46667 2.86667 9.72 2.28 9.72C1.8 9.72 1.42667 9.56 1.16 9.24C0.92 8.89333 0.8 8.46667 0.8 7.96C0.8 7.29333 0.933333 6.72 1.2 6.24C1.49333 5.76 2.17333 5.21333 3.24 4.6C5.48 3.32 8.10667 2.32 11.12 1.6C14.1333 0.879998 17.2133 0.519998 20.36 0.519998C25.1867 0.519998 28.7867 1.33333 31.16 2.96C33.5333 4.58667 34.72 6.73333 34.72 9.4ZM38.5579 35.16C37.2353 35.16 36.1793 34.68 35.3899 33.72C34.6006 32.76 34.2059 31.5013 34.2059 29.944C34.2059 28.2373 34.6006 26.6267 35.3899 25.112C36.1793 23.576 37.2246 22.3493 38.5259 21.432C39.8486 20.4933 41.2459 20.024 42.7179 20.024C43.1873 20.024 43.4966 20.12 43.6459 20.312C43.8166 20.4827 43.9553 20.8027 44.0619 21.272C44.5099 21.1867 44.9793 21.144 45.4699 21.144C46.5153 21.144 47.0379 21.5173 47.0379 22.264C47.0379 22.712 46.8779 23.7787 46.5579 25.464C46.0673 27.9173 45.8219 29.624 45.8219 30.584C45.8219 30.904 45.8966 31.16 46.0459 31.352C46.2166 31.544 46.4299 31.64 46.6859 31.64C47.0913 31.64 47.5819 31.384 48.1579 30.872C48.7339 30.3387 49.5126 29.4853 50.4939 28.312C50.7499 28.0133 51.0379 27.864 51.3579 27.864C51.6353 27.864 51.8486 27.992 51.9979 28.248C52.1686 28.504 52.2539 28.856 52.2539 29.304C52.2539 30.1573 52.0513 30.8187 51.6459 31.288C50.7713 32.376 49.8433 33.2933 48.8619 34.04C47.8806 34.7867 46.9313 35.16 46.0139 35.16C45.3099 35.16 44.6593 34.9253 44.0619 34.456C43.4859 33.9653 43.0486 33.304 42.7499 32.472C41.6406 34.264 40.2433 35.16 38.5579 35.16ZM39.7099 31.928C40.1793 31.928 40.6273 31.6507 41.0539 31.096C41.4806 30.5413 41.7899 29.8053 41.9819 28.888L43.1659 23C42.2699 23.0213 41.4379 23.3627 40.6699 24.024C39.9233 24.664 39.3259 25.5173 38.8779 26.584C38.4299 27.6507 38.2059 28.7813 38.2059 29.976C38.2059 30.6373 38.3339 31.128 38.5899 31.448C38.8673 31.768 39.2406 31.928 39.7099 31.928ZM67.4132 27.864C67.6905 27.864 67.9039 27.992 68.0532 28.248C68.2239 28.504 68.3092 28.856 68.3092 29.304C68.3092 30.1573 68.1065 30.8187 67.7012 31.288C66.7199 32.4187 65.7065 33.3467 64.6612 34.072C63.6372 34.7973 62.4639 35.16 61.1412 35.16C60.0532 35.16 59.2319 34.8507 58.6772 34.232C58.1225 33.592 57.8452 32.6747 57.8452 31.48C57.8452 30.8827 57.9945 29.816 58.2932 28.28C58.5705 26.936 58.7092 26.008 58.7092 25.496C58.7092 25.1547 58.5919 24.984 58.3572 24.984C58.0799 24.984 57.6852 25.3467 57.1732 26.072C56.6612 26.776 56.1492 27.7147 55.6372 28.888C55.1252 30.0613 54.7092 31.2987 54.3892 32.6C53.9839 34.3067 52.9812 35.16 51.3812 35.16C50.7412 35.16 50.3145 34.936 50.1012 34.488C49.9092 34.0187 49.8132 33.1867 49.8132 31.992C49.8132 31.3093 49.8239 30.7653 49.8452 30.36L49.8772 27.8C49.8772 24.5147 50.2079 21.0907 50.8692 17.528C51.5519 13.9653 52.5439 10.9787 53.8452 8.568C55.1679 6.136 56.7465 4.92 58.5812 4.92C59.5625 4.92 60.3519 5.34667 60.9492 6.2C61.5679 7.032 61.8772 8.12 61.8772 9.464C61.8772 11.6187 61.2479 13.8587 59.9892 16.184C58.7305 18.488 56.6825 21.1867 53.8452 24.28C53.7812 25.3893 53.7492 26.5307 53.7492 27.704C54.4532 25.8907 55.2319 24.4187 56.0852 23.288C56.9599 22.136 57.8132 21.3147 58.6452 20.824C59.4985 20.3333 60.2772 20.088 60.9812 20.088C62.3679 20.088 63.0612 20.7813 63.0612 22.168C63.0612 23 62.8265 24.504 62.3572 26.68C61.9519 28.536 61.7492 29.7627 61.7492 30.36C61.7492 31.2133 62.0585 31.64 62.6772 31.64C63.1039 31.64 63.6052 31.384 64.1812 30.872C64.7785 30.3387 65.5679 29.4853 66.5492 28.312C66.8052 28.0133 67.0932 27.864 67.4132 27.864ZM57.9092 8.088C57.5252 8.088 57.0985 8.64267 56.6292 9.752C56.1599 10.84 55.7012 12.3227 55.2532 14.2C54.8265 16.056 54.4745 18.0827 54.1972 20.28C55.5199 18.7227 56.6079 17.0267 57.4612 15.192C58.3359 13.3573 58.7732 11.6933 58.7732 10.2C58.7732 9.51733 58.6985 8.99467 58.5492 8.632C58.3999 8.26933 58.1865 8.088 57.9092 8.088ZM69.6517 35.16C68.329 35.16 67.273 34.68 66.4837 33.72C65.6944 32.76 65.2997 31.5013 65.2997 29.944C65.2997 28.2373 65.6944 26.6267 66.4837 25.112C67.273 23.576 68.3184 22.3493 69.6197 21.432C70.9424 20.4933 72.3397 20.024 73.8117 20.024C74.281 20.024 74.5904 20.12 74.7397 20.312C74.9104 20.4827 75.049 20.8027 75.1557 21.272C75.6037 21.1867 76.073 21.144 76.5637 21.144C77.609 21.144 78.1317 21.5173 78.1317 22.264C78.1317 22.712 77.9717 23.7787 77.6517 25.464C77.161 27.9173 76.9157 29.624 76.9157 30.584C76.9157 30.904 76.9904 31.16 77.1397 31.352C77.3104 31.544 77.5237 31.64 77.7797 31.64C78.185 31.64 78.6757 31.384 79.2517 30.872C79.8277 30.3387 80.6064 29.4853 81.5877 28.312C81.8437 28.0133 82.1317 27.864 82.4517 27.864C82.729 27.864 82.9424 27.992 83.0917 28.248C83.2624 28.504 83.3477 28.856 83.3477 29.304C83.3477 30.1573 83.145 30.8187 82.7397 31.288C81.865 32.376 80.937 33.2933 79.9557 34.04C78.9744 34.7867 78.025 35.16 77.1077 35.16C76.4037 35.16 75.753 34.9253 75.1557 34.456C74.5797 33.9653 74.1424 33.304 73.8437 32.472C72.7344 34.264 71.337 35.16 69.6517 35.16ZM70.8037 31.928C71.273 31.928 71.721 31.6507 72.1477 31.096C72.5744 30.5413 72.8837 29.8053 73.0757 28.888L74.2597 23C73.3637 23.0213 72.5317 23.3627 71.7637 24.024C71.017 24.664 70.4197 25.5173 69.9717 26.584C69.5237 27.6507 69.2997 28.7813 69.2997 29.976C69.2997 30.6373 69.4277 31.128 69.6837 31.448C69.961 31.768 70.3344 31.928 70.8037 31.928ZM83.0189 35.16C82.2083 35.16 81.6323 34.7333 81.2909 33.88C80.9709 33.0267 80.8109 31.6613 80.8109 29.784C80.8109 27.0107 81.2056 24.376 81.9949 21.88C82.1869 21.2613 82.4963 20.8133 82.9229 20.536C83.3709 20.2373 83.9896 20.088 84.7789 20.088C85.2056 20.088 85.5043 20.1413 85.6749 20.248C85.8456 20.3547 85.9309 20.5573 85.9309 20.856C85.9309 21.1973 85.7709 21.9653 85.4509 23.16C85.2376 24.0133 85.0669 24.76 84.9389 25.4C84.8109 26.04 84.7043 26.8293 84.6189 27.768C85.3229 25.9333 86.1123 24.44 86.9869 23.288C87.8616 22.136 88.7149 21.3147 89.5469 20.824C90.4003 20.3333 91.1789 20.088 91.8829 20.088C93.2696 20.088 93.9629 20.7813 93.9629 22.168C93.9629 22.4453 93.8669 23.1173 93.6749 24.184C93.5043 25.0373 93.4189 25.5707 93.4189 25.784C93.4189 26.5307 93.6856 26.904 94.2189 26.904C94.8163 26.904 95.5843 26.4347 96.5229 25.496C96.8003 25.2187 97.0883 25.08 97.3869 25.08C97.6643 25.08 97.8776 25.208 98.0269 25.464C98.1976 25.6987 98.2829 26.0187 98.2829 26.424C98.2829 27.2133 98.0696 27.832 97.6429 28.28C97.0456 28.8987 96.3416 29.432 95.5309 29.88C94.7416 30.3067 93.8989 30.52 93.0029 30.52C91.8723 30.52 91.0083 30.232 90.4109 29.656C89.8349 29.08 89.5469 28.3013 89.5469 27.32C89.5469 27 89.5789 26.68 89.6429 26.36C89.6856 25.9333 89.7069 25.6453 89.7069 25.496C89.7069 25.1547 89.5896 24.984 89.3549 24.984C89.0349 24.984 88.6083 25.3467 88.0749 26.072C87.5629 26.776 87.0509 27.7147 86.5389 28.888C86.0269 30.0613 85.6109 31.2987 85.2909 32.6C85.0563 33.6027 84.7789 34.2853 84.4589 34.648C84.1603 34.9893 83.6803 35.16 83.0189 35.16ZM99.2454 35.16C97.9228 35.16 96.8668 34.68 96.0774 33.72C95.2881 32.76 94.8934 31.5013 94.8934 29.944C94.8934 28.2373 95.2881 26.6267 96.0774 25.112C96.8668 23.576 97.9121 22.3493 99.2134 21.432C100.536 20.4933 101.933 20.024 103.405 20.024C103.875 20.024 104.184 20.12 104.333 20.312C104.504 20.4827 104.643 20.8027 104.749 21.272C105.197 21.1867 105.667 21.144 106.157 21.144C107.203 21.144 107.725 21.5173 107.725 22.264C107.725 22.712 107.565 23.7787 107.245 25.464C106.755 27.9173 106.509 29.624 106.509 30.584C106.509 30.904 106.584 31.16 106.733 31.352C106.904 31.544 107.117 31.64 107.373 31.64C107.779 31.64 108.269 31.384 108.845 30.872C109.421 30.3387 110.2 29.4853 111.181 28.312C111.437 28.0133 111.725 27.864 112.045 27.864C112.323 27.864 112.536 27.992 112.685 28.248C112.856 28.504 112.941 28.856 112.941 29.304C112.941 30.1573 112.739 30.8187 112.333 31.288C111.459 32.376 110.531 33.2933 109.549 34.04C108.568 34.7867 107.619 35.16 106.701 35.16C105.997 35.16 105.347 34.9253 104.749 34.456C104.173 33.9653 103.736 33.304 103.437 32.472C102.328 34.264 100.931 35.16 99.2454 35.16ZM100.397 31.928C100.867 31.928 101.315 31.6507 101.741 31.096C102.168 30.5413 102.477 29.8053 102.669 28.888L103.853 23C102.957 23.0213 102.125 23.3627 101.357 24.024C100.611 24.664 100.013 25.5173 99.5654 26.584C99.1174 27.6507 98.8934 28.7813 98.8934 29.976C98.8934 30.6373 99.0214 31.128 99.2774 31.448C99.5548 31.768 99.9281 31.928 100.397 31.928ZM112.613 35.16C111.802 35.16 111.226 34.7333 110.885 33.88C110.565 33.0267 110.405 31.6613 110.405 29.784C110.405 27.0107 110.799 24.376 111.589 21.88C111.781 21.2613 112.09 20.8133 112.517 20.536C112.965 20.2373 113.583 20.088 114.373 20.088C114.799 20.088 115.098 20.1413 115.269 20.248C115.439 20.3547 115.525 20.5573 115.525 20.856C115.525 21.1973 115.365 21.9653 115.045 23.16C114.831 24.0133 114.661 24.76 114.533 25.4C114.405 26.04 114.298 26.8293 114.213 27.768C114.917 25.9333 115.706 24.44 116.581 23.288C117.455 22.136 118.309 21.3147 119.141 20.824C119.994 20.3333 120.773 20.088 121.477 20.088C122.159 20.088 122.671 20.2693 123.013 20.632C123.375 20.9733 123.557 21.4853 123.557 22.168C123.557 22.7227 123.439 23.768 123.205 25.304C122.991 26.6053 122.821 27.8427 122.693 29.016C122.565 30.168 122.501 31.4587 122.501 32.888C122.501 33.6987 122.33 34.2853 121.989 34.648C121.669 34.9893 121.135 35.16 120.389 35.16C119.685 35.16 119.173 34.9787 118.853 34.616C118.533 34.2533 118.373 33.7093 118.373 32.984C118.373 32.1307 118.522 30.7227 118.821 28.76C119.077 27.0533 119.205 25.9653 119.205 25.496C119.205 25.1547 119.087 24.984 118.853 24.984C118.575 24.984 118.181 25.3467 117.669 26.072C117.178 26.776 116.666 27.7147 116.133 28.888C115.621 30.0613 115.205 31.2987 114.885 32.6C114.65 33.6027 114.373 34.2853 114.053 34.648C113.754 34.9893 113.274 35.16 112.613 35.16Z" fill="black"/>
</svg>
