<svg width="140" height="40" viewBox="0 0 140 40" fill="none" xmlns="http://www.w3.org/2000/svg">
<g clip-path="url(#clip0_3548_12426)">
<path d="M120.573 0.0996094L125.457 2.64018L109.204 10.9232V32.3769L104.238 29.8458V8.39575L120.573 0.0996094Z" fill="#16494D"/>
<path d="M113.452 13.147L129.718 4.85717L139.901 10.1546V31.7309L134.136 34.6005V13.1674L128.711 10.4539L118.419 15.601V25.5589L113.453 23.0277V13.1472L113.452 13.147Z" fill="#16494D"/>
<path d="M128.711 15.7598L123.745 18.2943V39.9006L128.711 37.3963V15.7598Z" fill="#16494D"/>
<path d="M113.453 34.5421V28.5651L118.419 31.1025V37.0733L113.453 34.5421Z" fill="#16494D"/>
<path d="M16.8737 29.0676V36.13H7.2397C3.5714 36.13 0.597656 33.1556 0.597656 29.4865V28.2895C0.597656 25.5867 1.88418 24.1298 4.48714 21.8256L6.10278 25.9852C5.14536 26.6735 4.60682 27.4192 4.60682 28.469V29.3413C4.60682 29.5969 4.63091 29.8534 4.70631 30.0976C4.98918 31.0135 5.4732 31.5293 6.54892 31.9153C6.84467 32.0214 7.1598 32.0601 7.474 32.0601H12.8645V8.83787H16.8737V25.5363H23.037V17.1572H27.0462V26.6735C27.0462 27.9957 25.9745 29.0676 24.6526 29.0676H16.8737Z" fill="#FF6224"/>
<path d="M20.5531 9.97307L18.1413 12.3854L20.5531 14.7977L22.9411 12.4091L25.3291 14.7977L27.7409 12.3854L25.3291 9.97307L22.9411 12.3616L20.5531 9.97307Z" fill="#FF6224"/>
<path d="M50.2634 8.83787V29.0676H46.2543V8.83787H50.2634Z" fill="#16494D"/>
<path fill-rule="evenodd" clip-rule="evenodd" d="M35.9022 14.7033C32.2009 14.7033 29.2003 17.7045 29.2003 21.4066V22.3642C29.2003 26.0664 32.2009 29.0676 35.9022 29.0676H42.0057C43.3276 29.0676 44.3993 27.9957 44.3993 26.6735V14.7033H40.3303V16.4988L38.5351 14.7033H35.9022ZM36.0817 18.7732C34.4955 18.7732 33.2095 20.0594 33.2095 21.646V22.1248C33.2095 23.7115 34.4955 24.9977 36.0817 24.9977H40.3303V18.7732H36.0817Z" fill="#16494D"/>
<path fill-rule="evenodd" clip-rule="evenodd" d="M90.3551 14.7033V14.7352C93.7475 15.066 96.3987 17.9266 96.3987 21.4066V29.0676L94.1548 31.701L93.528 30.3009C93.3526 29.909 93.0506 29.5875 92.6705 29.3879L92.0604 29.0676H56.8456V32.0003C56.8855 33.3768 56.2712 36.13 53.4947 36.13H51.52C50.8817 36.13 49.6052 35.9983 49.6052 35.4716C49.6052 35.1604 50.0041 35.0427 50.2036 35.0227C50.7122 34.9719 51.7953 34.6756 52.1782 33.7659C52.5419 32.902 52.5387 32.2755 52.5374 32.0352L52.5373 32.023C52.5373 32.0149 52.5373 32.0073 52.5373 32.0003V17.1572H56.8456V25.2969H61.3933L59.7777 23.681V20.5687C59.7777 16.8665 62.7782 13.8654 66.4796 13.8654H67.437C71.1384 13.8654 74.1389 16.8665 74.1389 20.5687V25.2969H78.2704C77.9999 24.7148 77.8489 24.0659 77.8489 23.3817V22.9029C77.8489 20.2605 79.6322 18.0347 82.0608 17.3639L78.5669 14.7033H90.3551ZM89.3378 22.9029C89.3378 21.2507 88.6406 19.7615 87.5245 18.7133H89.5173C91.1036 18.7133 92.3896 19.9995 92.3896 21.5862V25.2969C92.3896 25.2969 92.3596 24.9378 89.0425 24.9977C89.2333 24.4955 89.3378 23.9508 89.3378 23.3817V22.9029ZM83.9707 25.0575C85.0182 25.0568 85.8672 24.2073 85.8672 23.1594V22.9029C85.8672 21.6468 84.8491 20.6285 83.5933 20.6285C82.3375 20.6285 81.3195 21.6468 81.3195 22.9029V23.1594C81.3195 24.2077 82.1691 25.0575 83.2172 25.0575H83.9707ZM63.8467 25.2969H70.0699V20.7482C70.0699 19.1616 68.7839 17.8754 67.1976 17.8754H66.7189C65.1327 17.8754 63.8467 19.1616 63.8467 20.7482V25.2969Z" fill="#16494D"/>
</g>
<defs>
<clipPath id="clip0_3548_12426">
<rect width="139.502" height="40" fill="white" transform="translate(0.498047)"/>
</clipPath>
</defs>
</svg>
