<svg width="215" height="49" viewBox="0 0 215 49" fill="none" xmlns="http://www.w3.org/2000/svg">
<path d="M58.264 21.264C59 21.264 59.528 21.424 59.848 21.744C60.2 22.064 60.376 22.48 60.376 22.992C60.376 23.824 60.12 24.56 59.608 25.2C59.128 25.84 58.36 26.176 57.304 26.208C54.776 26.24 52.504 26.048 50.488 25.632C48.248 30.4 45.544 34.368 42.376 37.536C39.24 40.672 36.136 42.24 33.064 42.24C30.248 42.24 28.136 40.752 26.728 37.776C25.32 34.768 24.52 30.752 24.328 25.728C22.408 31.296 20.232 35.44 17.8 38.16C15.4 40.88 12.84 42.24 10.12 42.24C7.048 42.24 4.728 40.336 3.16 36.528C1.592 32.688 0.808 27.536 0.808 21.072C0.808 16.368 1.224 11.2 2.056 5.568C2.28 3.968 2.68 2.864 3.256 2.256C3.864 1.616 4.808 1.296 6.088 1.296C7.048 1.296 7.784 1.504 8.296 1.92C8.84 2.336 9.112 3.104 9.112 4.224C9.112 4.448 9.08 4.88 9.016 5.52C8.056 12.08 7.576 17.664 7.576 22.272C7.576 26.56 7.944 29.872 8.68 32.208C9.416 34.544 10.408 35.712 11.656 35.712C12.776 35.712 14.12 34.544 15.688 32.208C17.288 29.84 18.872 26.352 20.44 21.744C22.008 17.104 23.336 11.584 24.424 5.184C24.68 3.712 25.144 2.704 25.816 2.16C26.52 1.584 27.464 1.296 28.648 1.296C29.64 1.296 30.36 1.52 30.808 1.968C31.288 2.384 31.528 3.024 31.528 3.888C31.528 4.4 31.496 4.8 31.432 5.088C30.536 10.304 30.088 15.52 30.088 20.736C30.088 24.288 30.2 27.12 30.424 29.232C30.68 31.344 31.144 32.96 31.816 34.08C32.52 35.168 33.528 35.712 34.84 35.712C36.376 35.712 38.088 34.56 39.976 32.256C41.864 29.92 43.592 27.024 45.16 23.568C43.208 22.352 41.736 20.784 40.744 18.864C39.752 16.912 39.256 14.672 39.256 12.144C39.256 9.616 39.64 7.488 40.408 5.76C41.208 4 42.28 2.688 43.624 1.824C45 0.959999 46.52 0.527999 48.184 0.527999C50.232 0.527999 51.848 1.264 53.032 2.736C54.248 4.208 54.856 6.224 54.856 8.784C54.856 12.4 54.072 16.416 52.504 20.832C54.136 21.12 56.056 21.264 58.264 21.264ZM44.104 11.808C44.104 14.944 45.112 17.264 47.128 18.768C48.376 15.184 49 12.224 49 9.888C49 8.544 48.824 7.568 48.472 6.96C48.12 6.32 47.64 6 47.032 6C46.168 6 45.464 6.512 44.92 7.536C44.376 8.528 44.104 9.952 44.104 11.808Z" fill="#1FC0BF"/>
<path d="M66.8899 42.4582C64.7226 42.4582 62.7663 41.9273 61.0208 40.8655C59.2899 39.8036 57.9372 38.3273 56.9626 36.4364C56.0026 34.5309 55.5226 32.4 55.5226 30.0436V29.04C55.5226 26.5964 55.9953 24.4 56.9408 22.4509C57.8862 20.5018 59.2026 18.9673 60.8899 17.8473C62.5772 16.7273 64.4026 16.1673 66.3663 16.1673C69.4499 16.1673 71.8935 17.2218 73.6972 19.3309C75.5008 21.4255 76.4026 24.2909 76.4026 27.9273V29.4982H58.3153V30.0436C58.3153 32.9236 59.1372 35.3236 60.7808 37.2436C62.4244 39.1491 64.4972 40.1018 66.999 40.1018C68.4972 40.1018 69.8208 39.8327 70.9699 39.2945C72.119 38.7418 73.1663 37.8618 74.1117 36.6545L75.8572 37.9855C73.7917 40.9673 70.8026 42.4582 66.8899 42.4582ZM66.3663 18.5673C64.2572 18.5673 62.4753 19.3382 61.0208 20.88C59.5808 22.4218 58.7081 24.5018 58.4026 27.12H73.6099V26.8145C73.5372 24.3709 72.839 22.3855 71.5153 20.8582C70.2063 19.3309 68.4899 18.5673 66.3663 18.5673ZM85.0104 42H82.1959V6H85.0104V42ZM101.963 40.1018C103.927 40.1018 105.563 39.5564 106.872 38.4655C108.196 37.36 108.916 35.9273 109.032 34.1673H111.716C111.643 35.7236 111.156 37.1418 110.254 38.4218C109.367 39.6873 108.181 40.6764 106.698 41.3891C105.228 42.1018 103.65 42.4582 101.963 42.4582C98.632 42.4582 95.992 41.3091 94.043 39.0109C92.1084 36.6982 91.1411 33.5855 91.1411 29.6727V28.8218C91.1411 26.32 91.5775 24.1091 92.4502 22.1891C93.323 20.2691 94.5739 18.7855 96.203 17.7382C97.8466 16.6909 99.7593 16.1673 101.941 16.1673C104.719 16.1673 107.01 16.9964 108.814 18.6545C110.632 20.3127 111.599 22.4945 111.716 25.2H109.032C108.901 23.2073 108.181 21.6073 106.872 20.4C105.578 19.1782 103.934 18.5673 101.941 18.5673C99.4102 18.5673 97.4466 19.4836 96.0502 21.3164C94.6539 23.1345 93.9557 25.6945 93.9557 28.9964V29.8036C93.9557 33.0473 94.6539 35.5782 96.0502 37.3964C97.4466 39.2 99.4175 40.1018 101.963 40.1018ZM115.757 28.9527C115.757 26.5091 116.23 24.3127 117.175 22.3636C118.121 20.4145 119.452 18.8945 121.168 17.8036C122.899 16.7127 124.855 16.1673 127.037 16.1673C130.412 16.1673 133.146 17.3527 135.241 19.7236C137.335 22.0945 138.382 25.2291 138.382 29.1273V29.7164C138.382 32.1745 137.91 34.3855 136.964 36.3491C136.019 38.2982 134.688 39.8036 132.972 40.8655C131.255 41.9273 129.299 42.4582 127.102 42.4582C123.742 42.4582 121.008 41.28 118.899 38.9236C116.804 36.5527 115.757 33.4109 115.757 29.4982V28.9527ZM118.572 29.7164C118.572 32.7564 119.357 35.2509 120.928 37.2C122.499 39.1345 124.557 40.1018 127.102 40.1018C129.633 40.1018 131.684 39.1345 133.255 37.2C134.826 35.2509 135.612 32.6764 135.612 29.4764V28.9527C135.612 27.0036 135.248 25.2291 134.521 23.6291C133.808 22.0145 132.797 20.7709 131.488 19.8982C130.193 19.0109 128.71 18.5673 127.037 18.5673C124.55 18.5673 122.513 19.5491 120.928 21.5127C119.357 23.4618 118.572 26.0218 118.572 29.1927V29.7164ZM146.718 16.6473L146.805 20.7709C147.736 19.2291 148.907 18.08 150.318 17.3236C151.729 16.5527 153.293 16.1673 155.009 16.1673C159.009 16.1673 161.547 17.8109 162.624 21.0982C163.525 19.5127 164.733 18.2982 166.245 17.4545C167.773 16.5964 169.445 16.1673 171.264 16.1673C176.704 16.1673 179.482 19.1345 179.598 25.0691V42H176.784V25.2873C176.769 23.0182 176.282 21.3382 175.322 20.2473C174.362 19.1564 172.791 18.6109 170.609 18.6109C168.602 18.64 166.9 19.2945 165.504 20.5745C164.122 21.84 163.351 23.3891 163.191 25.2218V42H160.376V25.0691C160.362 22.9018 159.845 21.2873 158.827 20.2255C157.824 19.1491 156.275 18.6109 154.18 18.6109C152.42 18.6109 150.907 19.12 149.642 20.1382C148.376 21.1418 147.438 22.6327 146.827 24.6109V42H144.013V16.6473H146.718ZM196.546 42.4582C194.379 42.4582 192.423 41.9273 190.677 40.8655C188.946 39.8036 187.593 38.3273 186.619 36.4364C185.659 34.5309 185.179 32.4 185.179 30.0436V29.04C185.179 26.5964 185.652 24.4 186.597 22.4509C187.542 20.5018 188.859 18.9673 190.546 17.8473C192.233 16.7273 194.059 16.1673 196.023 16.1673C199.106 16.1673 201.55 17.2218 203.353 19.3309C205.157 21.4255 206.059 24.2909 206.059 27.9273V29.4982H187.972V30.0436C187.972 32.9236 188.793 35.3236 190.437 37.2436C192.081 39.1491 194.153 40.1018 196.655 40.1018C198.153 40.1018 199.477 39.8327 200.626 39.2945C201.775 38.7418 202.823 37.8618 203.768 36.6545L205.513 37.9855C203.448 40.9673 200.459 42.4582 196.546 42.4582ZM196.023 18.5673C193.913 18.5673 192.132 19.3382 190.677 20.88C189.237 22.4218 188.364 24.5018 188.059 27.12H203.266V26.8145C203.193 24.3709 202.495 22.3855 201.172 20.8582C199.863 19.3309 198.146 18.5673 196.023 18.5673ZM210.936 48.3709L209.256 47.1491C210.681 45.2436 211.416 43.2727 211.459 41.2364V37.5927H214.208V40.5164C214.208 43.7745 213.118 46.3927 210.936 48.3709Z" fill="#2F2F2F"/>
</svg>
